<?xml version="1.0" encoding="UTF-8"?>
<svg id="Layer_1" data-name="Layer 1" xmlns="http://www.w3.org/2000/svg" xmlns:xlink="http://www.w3.org/1999/xlink" viewBox="0 0 960 960">
  <defs>
    <style>
      .cls-1 {
        fill: #fff;
      }

      .cls-2 {
        fill: url(#linear-gradient);
      }
    </style>
    <linearGradient id="linear-gradient" x1="97.93" y1="899.93" x2="211.32" y2="702.55" gradientTransform="translate(-69.62 3365.28) scale(3.59 -3.59)" gradientUnits="userSpaceOnUse">
      <stop offset="0" stop-color="#927be5"/>
      <stop offset="1" stop-color="#512bd4"/>
    </linearGradient>
  </defs>
  <g id="layer1">
    <g id="g16308">
      <path id="path8" class="cls-2" d="m57.92,305.99v348.09c0,43.08,22.97,82.9,60.29,104.43l301.46,174.06c37.32,21.55,83.26,21.55,120.58,0l301.46-174.06c37.32-21.55,60.29-61.35,60.29-104.43v-348.09c0-43.08-22.97-82.9-60.29-104.43L540.25,27.53c-37.32-21.55-83.26-21.55-120.58,0L118.21,201.56c-37.32,21.56-60.29,61.35-60.29,104.43h0Z"/>
      <path id="path12" class="cls-1" d="m268.94,419.77v120.58c0,7.99,3.16,15.68,8.83,21.31,5.67,5.67,13.32,8.83,21.31,8.83s15.68-3.17,21.31-8.83c5.67-5.67,8.83-13.32,8.83-21.31s3.17-15.68,8.83-21.32c5.67-5.67,13.32-8.83,21.31-8.83s15.68,3.17,21.31,8.83c5.67,5.67,8.83,13.32,8.83,21.32,0,23.99-9.53,46.99-26.5,63.94-16.97,16.97-39.97,26.5-63.94,26.5s-47-9.53-63.94-26.5c-16.97-16.97-26.5-39.97-26.5-63.94v-120.58c0-24,9.53-47,26.5-63.94,16.97-16.97,39.97-26.5,63.94-26.5s47,9.53,63.94,26.5c16.94,16.97,26.5,39.97,26.5,63.94,0,7.99-3.16,15.68-8.83,21.31-5.67,5.67-13.32,8.83-21.31,8.83s-15.68-3.16-21.31-8.83c-5.67-5.67-8.83-13.32-8.83-21.31s-3.17-15.68-8.83-21.31c-5.67-5.67-13.32-8.83-21.31-8.83s-15.68,3.17-21.31,8.83c-5.67,5.67-8.83,13.32-8.83,21.31Zm482.33,120.58c0,7.99-3.16,15.68-8.83,21.31-5.67,5.67-13.33,8.83-21.31,8.83h-30.15v30.15c0,7.99-3.16,15.68-8.83,21.32-5.67,5.63-13.32,8.83-21.31,8.83s-15.68-3.17-21.32-8.83c-5.64-5.67-8.83-13.33-8.83-21.32v-30.15h-60.29v30.15c0,7.99-3.17,15.68-8.83,21.32-5.66,5.63-13.32,8.83-21.31,8.83s-15.68-3.17-21.31-8.83c-5.67-5.67-8.83-13.33-8.83-21.32v-30.15h-30.15c-7.99,0-15.67-3.17-21.31-8.83-5.67-5.67-8.83-13.32-8.83-21.31s3.16-15.68,8.83-21.32c5.67-5.67,13.32-8.83,21.31-8.83h30.15v-60.29h-30.15c-7.99,0-15.67-3.16-21.31-8.83-5.67-5.67-8.83-13.32-8.83-21.31s3.16-15.68,8.83-21.31c5.67-5.67,13.32-8.83,21.31-8.83h30.15v-30.15c0-7.99,3.17-15.68,8.83-21.31,5.67-5.67,13.33-8.83,21.31-8.83s15.68,3.17,21.31,8.83c5.67,5.67,8.83,13.32,8.83,21.31v30.15h60.29v-30.15c0-7.99,3.17-15.68,8.83-21.31,5.67-5.67,13.32-8.83,21.32-8.83s15.67,3.17,21.31,8.83c5.64,5.67,8.83,13.32,8.83,21.31v30.15h30.15c7.99,0,15.68,3.17,21.31,8.83,5.63,5.67,8.83,13.32,8.83,21.31s-3.16,15.68-8.83,21.31c-5.67,5.67-13.33,8.83-21.31,8.83h-30.15v60.29h30.15c7.99,0,15.68,3.17,21.31,8.83,5.63,5.67,8.83,13.32,8.83,21.32Zm-120.58-90.44h-60.29v60.29h60.29v-60.29Z"/>
    </g>
  </g>
</svg>